<svg width="49" height="48" viewBox="0 0 49 48" fill="none" xmlns="http://www.w3.org/2000/svg">
<g clip-path="url(#clip0_11_85)">
<path d="M13.1214 16.9828C12.7862 16.6477 12.2414 16.6477 11.9063 16.9828C11.5703 17.3188 11.5703 17.8628 11.9063 18.198C12.2415 18.534 12.7863 18.534 13.1214 18.198C13.4573 17.8628 13.4573 17.3188 13.1214 16.9828Z" fill="#BA9E74"/>
<path d="M24.7593 40.4757C25.1382 39.9624 25.343 39.3441 25.343 38.694C25.343 37.0356 23.9938 35.6863 22.3353 35.6863H7.72639C6.92262 35.6863 6.16731 35.9991 5.59952 36.5671C5.03148 37.1349 4.71866 37.8902 4.71866 38.694C4.71866 39.3599 4.9366 39.9758 5.30433 40.4746C3.93595 41.1941 3 42.6293 3 44.2797V45.1391C3 45.6137 3.38483 45.9984 3.85938 45.9984H26.2023C26.6768 45.9984 27.0616 45.6137 27.0616 45.1391V44.2797C27.0616 42.63 26.1266 41.1955 24.7593 40.4757ZM6.81477 37.7822C7.05805 37.5388 7.38187 37.4049 7.72639 37.4049H22.3353C23.046 37.4049 23.6242 37.9831 23.6242 38.6938C23.6242 39.0384 23.4902 39.3622 23.2468 39.6055C23.0035 39.8489 22.6797 39.9829 22.3352 39.9829H7.72639C7.0156 39.9829 6.43741 39.4046 6.43741 38.6939C6.43741 38.3494 6.57139 38.0256 6.81477 37.7822ZM4.71866 44.2797C4.71866 42.8582 5.87521 41.7016 7.2967 41.7016H7.72639H22.3353H22.7649C24.1864 41.7016 25.343 42.8582 25.343 44.2797H4.71866Z" fill="#BA9E74"/>
<path d="M46.2001 38.1043C45.9082 37.652 45.56 37.2521 45.165 36.9155L41.1495 33.4133C41.1183 33.3662 41.082 33.3216 41.0405 33.28C40.9707 33.2104 40.8916 33.156 40.8076 33.1152L38.3793 30.9973L27.1395 21.1926C27.5996 20.7116 27.8529 20.0826 27.8529 19.4138C27.8529 18.7247 27.5847 18.0772 27.0972 17.5897C26.8846 17.3774 26.6429 17.2104 26.3847 17.0881L27.4245 16.0483C27.7152 16.1255 28.0138 16.1651 28.3127 16.1651C29.1928 16.165 30.073 15.83 30.7429 15.16C31.3925 14.5106 31.7501 13.6474 31.7501 12.7293C31.7501 11.8112 31.3925 10.948 30.743 10.2986L23.4514 3.0071C22.802 2.35767 21.9386 2 21.0203 2C20.1024 2 19.2393 2.35767 18.59 3.0071C17.6925 3.90463 17.397 5.179 17.7017 6.32558L7.32694 16.7003C7.04026 16.6241 6.74197 16.5839 6.43723 16.5839C5.51873 16.5839 4.65583 16.9413 4.00692 17.5901C2.66664 18.9304 2.66664 21.1112 4.00692 22.4516L11.2985 29.7432C11.9687 30.4133 12.8489 30.7484 13.7292 30.7484C14.6095 30.7484 15.4898 30.4133 16.16 29.7432C17.0576 28.8456 17.353 27.5713 17.0483 26.4247L18.086 25.3869C18.2107 25.6473 18.3799 25.8876 18.5901 26.0977C19.077 26.5847 19.7244 26.8529 20.4132 26.8529C21.0814 26.8529 21.7101 26.6 22.1918 26.1404L34.1634 39.895C34.1964 39.9466 34.2349 39.9956 34.28 40.0407C34.2953 40.056 34.3117 40.0701 34.3279 40.084L37.8953 44.1827C37.9839 44.2873 38.0787 44.3903 38.1771 44.4887C39.1569 45.4681 40.451 45.9997 41.8097 45.9997C42.0492 45.9997 42.291 45.9832 42.533 45.9496C44.1512 45.7257 45.5496 44.7577 46.3696 43.2935C47.2679 41.6888 47.2011 39.6515 46.2001 38.1043ZM19.8054 4.22243C20.1302 3.89767 20.5617 3.71875 21.0204 3.71875C21.4796 3.71875 21.9115 3.89767 22.2362 4.22243L29.5278 11.514C29.8525 11.8387 30.0314 12.2704 30.0314 12.7294C30.0314 13.1884 29.8525 13.62 29.5277 13.9448C28.8578 14.6149 27.7676 14.6149 27.0977 13.9448L19.8058 6.65291C19.8057 6.65274 19.8056 6.65266 19.8054 6.65248C19.1354 5.98252 19.1354 4.8924 19.8054 4.22243ZM14.9447 28.5279C14.2746 29.198 13.1839 29.1981 12.5138 28.5279L5.22225 21.2363C4.55202 20.5661 4.55202 19.4757 5.22225 18.8054C5.5464 18.4812 5.97798 18.3026 6.43723 18.3026C6.8964 18.3026 7.32772 18.4811 7.65179 18.8051L14.9446 26.0979C15.6148 26.7678 15.6148 27.858 14.9447 28.5279ZM18.5628 22.4796L16.1599 24.8826L8.86763 17.5903L18.59 7.86773L25.8822 15.16L23.4749 17.5674C23.4671 17.5748 23.4595 17.582 23.4512 17.5902L18.5925 22.449C18.5824 22.4589 18.5727 22.4692 18.5628 22.4796ZM21.6313 24.2723C21.6296 24.2741 21.628 24.2757 21.6263 24.2774L21.0211 24.8826C20.8587 25.0448 20.643 25.1342 20.4132 25.1342C20.1835 25.1342 19.9676 25.0448 19.8053 24.8825C19.6428 24.7201 19.5534 24.504 19.5534 24.2741C19.5534 24.0492 19.6392 23.8375 19.795 23.6778L24.6763 18.7965C25.0109 18.4711 25.5518 18.4752 25.8824 18.8054C26.0448 18.9678 26.1343 19.1839 26.1343 19.4138C26.1343 19.6435 26.0451 19.8589 25.8823 20.0213L25.2807 20.6229C25.2765 20.627 25.2724 20.6311 25.2684 20.6352L21.6313 24.2723ZM23.4109 24.9233L25.9225 22.4117L36.5566 31.6874L32.6762 35.5679L23.4109 24.9233ZM33.8072 36.8674L37.8548 32.8198L39.153 33.9522L34.9382 38.1671L33.8072 36.8674ZM44.8701 42.4539C44.3155 43.4441 43.3778 44.0977 42.2975 44.2472C41.2197 44.3964 40.1607 44.0414 39.3922 43.2733C39.3261 43.2073 39.2629 43.1385 39.2039 43.0687C39.2012 43.0654 39.1984 43.0621 39.1956 43.059L36.0692 39.4666L40.4512 35.0845L44.0391 38.2141C44.0418 38.2165 44.0445 38.2188 44.0474 38.2212C44.3159 38.4495 44.5542 38.7238 44.7564 39.0371C45.4063 40.0413 45.4518 41.4145 44.8701 42.4539Z" fill="#BA9E74"/>
<path d="M19.1979 10.9062C18.8622 10.5706 18.3182 10.5706 17.9826 10.9062L14.3364 14.5524C14.0008 14.888 14.0008 15.4321 14.3364 15.7676C14.5042 15.9355 14.7242 16.0193 14.9441 16.0193C15.164 16.0193 15.3839 15.9354 15.5517 15.7676L19.1979 12.1215C19.5335 11.786 19.5335 11.2419 19.1979 10.9062Z" fill="#BA9E74"/>
</g>
<defs>
<clipPath id="clip0_11_85">
<rect width="44" height="44" fill="white" transform="translate(3 2)"/>
</clipPath>
</defs>
</svg>
