<svg width="24" height="24" viewBox="0 0 24 24" fill="none" xmlns="http://www.w3.org/2000/svg">
<g clip-path="url(#clip0_11_193)">
<path d="M18.8098 12.9982C18.6926 12.8809 18.5534 12.7877 18.4002 12.7242C18.247 12.6607 18.0828 12.628 17.917 12.628C17.7511 12.628 17.5869 12.6607 17.4337 12.7242C17.2805 12.7877 17.1413 12.8809 17.0242 12.9982L15.0113 15.0111C14.0781 14.7333 12.3367 14.1019 11.233 12.9982C10.1293 11.8945 9.49788 10.1531 9.22007 9.21994L11.233 7.20704C11.3503 7.08987 11.4435 6.9507 11.507 6.79751C11.5705 6.64431 11.6032 6.48009 11.6032 6.31424C11.6032 6.1484 11.5705 5.98417 11.507 5.83098C11.4435 5.67778 11.3503 5.53862 11.233 5.42144L6.18178 0.370254C6.06461 0.252882 5.92544 0.159766 5.77224 0.0962338C5.61905 0.0327015 5.45483 0 5.28898 0C5.12313 0 4.95891 0.0327015 4.80572 0.0962338C4.65252 0.159766 4.51335 0.252882 4.39618 0.370254L0.971474 3.79496C0.491611 4.27482 0.221372 4.934 0.231475 5.60708C0.260519 7.4053 0.736594 13.6511 5.65898 18.5735C10.5814 23.4959 16.8272 23.9707 18.6267 24.001H18.662C19.3288 24.001 19.9589 23.7383 20.4362 23.261L23.8609 19.8363C23.9783 19.7191 24.0714 19.5799 24.135 19.4267C24.1985 19.2736 24.2312 19.1093 24.2312 18.9435C24.2312 18.7776 24.1985 18.6134 24.135 18.4602C24.0714 18.307 23.9783 18.1679 23.8609 18.0507L18.8098 12.9982ZM18.6494 21.4741C17.0734 21.4476 11.6813 21.0246 7.44458 16.7866C3.194 12.536 2.78233 7.12496 2.75707 5.58056L5.28898 3.04865L8.55458 6.31424L6.92178 7.94704C6.77335 8.09536 6.66422 8.27832 6.60425 8.4794C6.54428 8.68047 6.53536 8.89332 6.5783 9.09871C6.6086 9.24393 7.34987 12.6876 9.44611 14.7838C11.5424 16.8801 14.986 17.6213 15.1312 17.6516C15.3365 17.6958 15.5496 17.6876 15.7508 17.6278C15.9521 17.568 16.1351 17.4585 16.2829 17.3094L17.917 15.6766L21.1826 18.9422L18.6494 21.4741Z" fill="#BA9E74"/>
</g>
<defs>
<clipPath id="clip0_11_193">
<rect width="24" height="24" fill="white"/>
</clipPath>
</defs>
</svg>
