<svg width="49" height="48" viewBox="0 0 49 48" fill="none" xmlns="http://www.w3.org/2000/svg">
<g clip-path="url(#clip0_11_65)">
<path d="M26.322 38.09H22.6783C22.516 38.09 22.3603 38.0266 22.2455 37.9138C22.1307 37.801 22.0662 37.6479 22.0662 37.4884V8.42949C22.0662 7.79506 22.3226 7.18661 22.7791 6.738C23.2355 6.28938 23.8546 6.03735 24.5001 6.03735C25.1457 6.03735 25.7648 6.28938 26.2212 6.738C26.6777 7.18661 26.9341 7.79506 26.9341 8.42949V37.489C26.934 37.6484 26.8694 37.8013 26.7546 37.914C26.6398 38.0267 26.4842 38.09 26.322 38.09ZM23.2905 36.8867H25.7098V8.42949C25.7098 8.11419 25.5823 7.8118 25.3555 7.58885C25.1286 7.3659 24.821 7.24064 24.5001 7.24064C24.1793 7.24064 23.8717 7.3659 23.6448 7.58885C23.4179 7.8118 23.2905 8.11419 23.2905 8.42949V36.8867Z" fill="#BA9E74"/>
<path d="M9.74692 14.103H7.64535C7.14673 14.0942 6.67156 13.8934 6.32211 13.5437C5.97265 13.194 5.77686 12.7235 5.77686 12.2334C5.77686 11.7433 5.97265 11.2727 6.32211 10.9231C6.67156 10.5734 7.14673 10.3726 7.64535 10.3638H9.44879C9.61115 10.3638 9.76686 10.4272 9.88166 10.54C9.99646 10.6528 10.061 10.8058 10.061 10.9654C10.061 11.125 9.99646 11.278 9.88166 11.3908C9.76686 11.5037 9.61115 11.5671 9.44879 11.5671H7.64535C7.46906 11.5723 7.30177 11.6448 7.17895 11.7691C7.05613 11.8935 6.98744 12.06 6.98744 12.2334C6.98744 12.4067 7.05613 12.5732 7.17895 12.6976C7.30177 12.822 7.46906 12.8945 7.64535 12.8997H9.74692C9.90928 12.8997 10.065 12.9631 10.1798 13.0759C10.2946 13.1888 10.3591 13.3418 10.3591 13.5013C10.3591 13.6609 10.2946 13.8139 10.1798 13.9268C10.065 14.0396 9.90928 14.103 9.74692 14.103Z" fill="#BA9E74"/>
<path d="M22.6782 14.103H13.4498C13.2875 14.103 13.1318 14.0396 13.0169 13.9268C12.9021 13.8139 12.8376 13.6609 12.8376 13.5013C12.8376 13.3418 12.9021 13.1888 13.0169 13.0759C13.1318 12.9631 13.2875 12.8997 13.4498 12.8997H22.0661V11.5671H13.7473C13.585 11.5671 13.4293 11.5037 13.3145 11.3908C13.1997 11.278 13.1352 11.125 13.1352 10.9654C13.1352 10.8058 13.1997 10.6528 13.3145 10.54C13.4293 10.4272 13.585 10.3638 13.7473 10.3638H22.6782C22.8406 10.3638 22.9963 10.4272 23.1111 10.54C23.2259 10.6528 23.2904 10.8058 23.2904 10.9654V13.5013C23.2904 13.6609 23.2259 13.8139 23.1111 13.9268C22.9963 14.0396 22.8406 14.103 22.6782 14.103Z" fill="#BA9E74"/>
<path d="M35.4169 14.103H26.3219C26.1595 14.103 26.0038 14.0396 25.889 13.9268C25.7742 13.8139 25.7097 13.6609 25.7097 13.5013V10.9654C25.7097 10.8058 25.7742 10.6528 25.889 10.54C26.0038 10.4272 26.1595 10.3638 26.3219 10.3638H35.1194C35.2817 10.3638 35.4374 10.4272 35.5522 10.54C35.667 10.6528 35.7315 10.8058 35.7315 10.9654C35.7315 11.125 35.667 11.278 35.5522 11.3908C35.4374 11.5037 35.2817 11.5671 35.1194 11.5671H26.9341V12.8997H35.4169C35.5792 12.8997 35.7349 12.9631 35.8497 13.0759C35.9645 13.1888 36.029 13.3418 36.029 13.5013C36.029 13.6609 35.9645 13.8139 35.8497 13.9268C35.7349 14.0396 35.5792 14.103 35.4169 14.103Z" fill="#BA9E74"/>
<path d="M41.3487 14.103H39.2533C39.0909 14.103 38.9352 14.0396 38.8204 13.9268C38.7056 13.8139 38.6411 13.6609 38.6411 13.5013C38.6411 13.3418 38.7056 13.1888 38.8204 13.0759C38.9352 12.9631 39.0909 12.8997 39.2533 12.8997H41.3487C41.525 12.8945 41.6923 12.822 41.8151 12.6976C41.9379 12.5732 42.0066 12.4067 42.0066 12.2334C42.0066 12.06 41.9379 11.8935 41.8151 11.7691C41.6923 11.6448 41.525 11.5723 41.3487 11.5671H39.5551C39.3927 11.5671 39.237 11.5037 39.1222 11.3908C39.0074 11.278 38.9429 11.125 38.9429 10.9654C38.9429 10.8058 39.0074 10.6528 39.1222 10.54C39.237 10.4272 39.3927 10.3638 39.5551 10.3638H41.3487C41.8474 10.3726 42.3225 10.5734 42.672 10.9231C43.0214 11.2727 43.2172 11.7433 43.2172 12.2334C43.2172 12.7235 43.0214 13.194 42.672 13.5437C42.3225 13.8934 41.8474 14.0942 41.3487 14.103Z" fill="#BA9E74"/>
<path d="M32.2533 41.9623H16.7471C16.6542 41.9622 16.5625 41.9414 16.479 41.9013C16.3955 41.8613 16.3223 41.8031 16.2651 41.7311C16.2079 41.6592 16.1681 41.5754 16.1487 41.486C16.1293 41.3967 16.1309 41.3043 16.1533 41.2156C16.4057 40.0258 17.0557 38.9531 17.9999 38.1681C18.9441 37.3832 20.1283 36.9311 21.3641 36.8838H27.6363C28.8721 36.9311 30.0563 37.3832 31.0005 38.1681C31.9447 38.9531 32.5947 40.0258 32.8471 41.2156C32.8695 41.3043 32.8711 41.3967 32.8517 41.486C32.8323 41.5754 32.7925 41.6592 32.7353 41.7311C32.6781 41.8031 32.6049 41.8613 32.5214 41.9013C32.4379 41.9414 32.3462 41.9622 32.2533 41.9623ZM17.5937 40.759H31.4067C31.1153 39.9988 30.6021 39.34 29.9314 38.8653C29.2607 38.3905 28.4623 38.1208 27.6363 38.0901H21.3641C20.5381 38.1208 19.7397 38.3905 19.069 38.8653C18.3983 39.34 17.8851 39.9988 17.5937 40.759Z" fill="#BA9E74"/>
<path d="M33.9109 41.9621H15.0892C14.9269 41.9621 14.7712 41.8987 14.6563 41.7859C14.5415 41.673 14.4771 41.52 14.4771 41.3604C14.4771 41.2009 14.5415 41.0478 14.6563 40.935C14.7712 40.8222 14.9269 40.7588 15.0892 40.7588H33.9109C34.0733 40.7588 34.229 40.8222 34.3438 40.935C34.4586 41.0478 34.5231 41.2009 34.5231 41.3604C34.5231 41.52 34.4586 41.673 34.3438 41.7859C34.229 41.8987 34.0733 41.9621 33.9109 41.9621Z" fill="#BA9E74"/>
<path d="M45.3137 29.1887H29.4947C29.3922 29.1888 29.2914 29.1636 29.2014 29.1154C29.1114 29.0672 29.0351 28.9976 28.9796 28.9129C28.9241 28.8282 28.8911 28.7312 28.8837 28.6308C28.8763 28.5303 28.8946 28.4297 28.937 28.338L35.6586 13.7938C35.6917 13.7217 35.739 13.6566 35.7977 13.6025C35.8564 13.5483 35.9254 13.506 36.0008 13.4781C36.0761 13.4502 36.1563 13.4372 36.2368 13.4398C36.3173 13.4424 36.3965 13.4606 36.4698 13.4933C36.5431 13.526 36.6092 13.5727 36.6641 13.6305C36.7191 13.6884 36.7619 13.7563 36.7901 13.8304C36.8183 13.9046 36.8313 13.9834 36.8285 14.0625C36.8256 14.1416 36.8069 14.2194 36.7734 14.2914L30.4448 27.9854H44.3612L38.0381 14.2914C38.0049 14.2194 37.9865 14.1417 37.9838 14.0627C37.9812 13.9837 37.9944 13.905 38.0227 13.831C38.051 13.7571 38.0938 13.6893 38.1488 13.6316C38.2038 13.5739 38.2697 13.5274 38.343 13.4948C38.4162 13.4622 38.4953 13.444 38.5756 13.4414C38.656 13.4388 38.7361 13.4518 38.8114 13.4796C38.8866 13.5075 38.9556 13.5496 39.0143 13.6036C39.073 13.6576 39.1203 13.7224 39.1535 13.7944L45.8683 28.3386C45.9105 28.43 45.9288 28.5303 45.9214 28.6305C45.914 28.7306 45.8813 28.8273 45.8262 28.9118C45.771 28.9963 45.6953 29.0659 45.6058 29.1143C45.5163 29.1626 45.4159 29.1882 45.3137 29.1887Z" fill="#BA9E74"/>
<path d="M37.467 36.8625H37.3397C32.438 36.8625 28.8801 33.3826 28.8801 28.5875C28.8801 28.4279 28.9446 28.2749 29.0594 28.1621C29.1742 28.0492 29.3299 27.9858 29.4923 27.9858H45.3138C45.4761 27.9858 45.6318 28.0492 45.7466 28.1621C45.8614 28.2749 45.9259 28.4279 45.9259 28.5875C45.9259 33.3856 42.368 36.8625 37.467 36.8625ZM30.1259 29.1891C30.3989 33.0288 33.2877 35.6592 37.3397 35.6592H37.467C41.5183 35.6592 44.4077 33.0288 44.6802 29.1891H30.1259Z" fill="#BA9E74"/>
<path d="M37.4033 14.961C36.8081 14.9611 36.2262 14.7878 35.7312 14.4628C35.2362 14.1379 34.8504 13.6759 34.6225 13.1355C34.3947 12.595 34.335 12.0003 34.4511 11.4265C34.5672 10.8527 34.8538 10.3256 35.2747 9.91194C35.6957 9.49827 36.2319 9.21656 36.8158 9.10246C37.3996 8.98835 38.0047 9.04698 38.5547 9.27091C39.1046 9.49485 39.5746 9.87403 39.9052 10.3605C40.2358 10.847 40.4123 11.4189 40.4121 12.0039C40.4112 12.7879 40.0938 13.5395 39.5298 14.0939C38.9658 14.6482 38.201 14.9601 37.4033 14.961ZM37.4033 10.2495C37.0503 10.2494 36.7051 10.3522 36.4114 10.5449C36.1178 10.7376 35.8889 11.0116 35.7537 11.3321C35.6185 11.6527 35.5831 12.0055 35.6519 12.3458C35.7207 12.6862 35.8906 12.9989 36.1403 13.2443C36.3899 13.4897 36.708 13.6568 37.0542 13.7246C37.4005 13.7923 37.7595 13.7576 38.0857 13.6249C38.4119 13.4921 38.6907 13.2672 38.8869 12.9787C39.0831 12.6902 39.1878 12.351 39.1878 12.0039C39.1873 11.5389 38.9992 11.093 38.6646 10.7641C38.3301 10.4352 37.8765 10.2502 37.4033 10.2495Z" fill="#BA9E74"/>
<path d="M19.5049 29.1886H3.68646C3.58404 29.1886 3.48325 29.1633 3.39335 29.1151C3.30344 29.0668 3.22728 28.9972 3.17185 28.9126C3.11642 28.8279 3.08349 28.7309 3.07607 28.6305C3.06865 28.5301 3.08698 28.4295 3.12939 28.3379L9.85221 13.7937C9.91935 13.6484 10.0425 13.5352 10.1945 13.479C10.3466 13.4229 10.5151 13.4284 10.663 13.4944C10.8109 13.5604 10.9261 13.6814 10.9832 13.8309C11.0403 13.9803 11.0347 14.1459 10.9676 14.2913L4.63899 27.9853H18.5554L12.2323 14.2913C12.1972 14.2191 12.177 14.1407 12.1731 14.0608C12.1691 13.9808 12.1814 13.9009 12.2093 13.8257C12.2372 13.7505 12.2801 13.6815 12.3354 13.6227C12.3907 13.564 12.4575 13.5167 12.5316 13.4837C12.6058 13.4506 12.686 13.4324 12.7674 13.4302C12.8488 13.4279 12.9298 13.4417 13.0058 13.4706C13.0817 13.4995 13.151 13.5431 13.2096 13.5987C13.2682 13.6543 13.315 13.7208 13.3471 13.7943L20.0626 28.3385C20.1048 28.4301 20.1231 28.5308 20.1156 28.6311C20.108 28.7315 20.075 28.8284 20.0195 28.913C19.9641 28.9976 19.8879 29.0671 19.798 29.1153C19.708 29.1634 19.6073 29.1886 19.5049 29.1886Z" fill="#BA9E74"/>
<path d="M11.6605 36.8625H11.5332C6.63214 36.8625 3.07422 33.3856 3.07422 28.5875C3.07422 28.4279 3.13871 28.2749 3.25352 28.1621C3.36832 28.0492 3.52403 27.9858 3.68639 27.9858H19.5079C19.6702 27.9858 19.8259 28.0492 19.9407 28.1621C20.0555 28.2749 20.12 28.4279 20.12 28.5875C20.12 33.3856 16.5621 36.8625 11.6605 36.8625ZM4.31998 29.1891C4.59239 33.0288 7.48183 35.6592 11.5332 35.6592H11.6605C15.7124 35.6592 18.6012 33.0288 18.8743 29.1891H4.31998Z" fill="#BA9E74"/>
<path d="M11.5968 14.961C11.0016 14.961 10.4197 14.7875 9.92481 14.4625C9.42991 14.1375 9.04418 13.6755 8.81642 13.1351C8.58867 12.5946 8.5291 11.9999 8.64527 11.4261C8.76144 10.8524 9.04812 10.3253 9.46906 9.91173C9.88999 9.49811 10.4263 9.21647 11.0101 9.10241C11.5939 8.98836 12.199 9.04702 12.7489 9.27097C13.2988 9.49492 13.7688 9.87411 14.0994 10.3606C14.43 10.847 14.6064 11.4189 14.6062 12.0039C14.6053 12.788 14.2879 13.5397 13.7237 14.0941C13.1595 14.6484 12.3946 14.9602 11.5968 14.961ZM11.5968 10.2495C11.2438 10.2495 10.8986 10.3524 10.6051 10.5452C10.3115 10.738 10.0827 11.012 9.94762 11.3326C9.81251 11.6531 9.77716 12.0059 9.84604 12.3462C9.91492 12.6865 10.0849 12.9991 10.3346 13.2445C10.5842 13.4898 10.9023 13.6569 11.2486 13.7246C11.5948 13.7923 11.9538 13.7576 12.2799 13.6248C12.6061 13.492 12.8849 13.2671 13.0811 12.9786C13.2772 12.6901 13.3819 12.3509 13.3819 12.0039C13.3814 11.5388 13.1932 11.0928 12.8585 10.7639C12.5239 10.435 12.0701 10.25 11.5968 10.2495Z" fill="#BA9E74"/>
</g>
<defs>
<clipPath id="clip0_11_65">
<rect width="43" height="36" fill="white" transform="translate(3 6)"/>
</clipPath>
</defs>
</svg>
