<svg width="49" height="48" viewBox="0 0 49 48" fill="none" xmlns="http://www.w3.org/2000/svg">
<g clip-path="url(#clip0_11_37)">
<path d="M24.3633 23.05C28.0533 23.05 30.9233 20.0643 30.9233 16.4C30.9233 12.7357 27.9166 9.88574 24.2266 9.88574C20.5366 9.88574 17.6666 12.8715 17.6666 16.4C17.6666 20.0643 20.6733 23.05 24.3633 23.05ZM24.2266 12.6C24.3633 12.6 24.3633 12.6 24.2266 12.6C26.4133 12.6 28.19 14.3643 28.19 16.5357C28.19 18.7072 26.4133 20.3357 24.2266 20.3357C22.04 20.3357 20.4 18.5715 20.4 16.5357C20.4 14.3643 22.1766 12.6 24.2266 12.6Z" fill="#BA9E74"/>
<path d="M44.59 22.2356C41.9933 19.9284 38.5766 18.707 35.0233 18.8427H33.93C33.6566 19.9284 33.2466 20.8784 32.7 21.6927C33.52 21.557 34.2033 21.557 35.0233 21.557C37.62 21.4213 40.2166 22.2356 42.2666 23.7284V33.4999H45V22.6427L44.59 22.2356Z" fill="#BA9E74"/>
<path d="M31.88 10.1572C32.5633 8.52866 34.4767 7.71437 36.2533 8.39294C37.8933 9.07151 38.7133 10.9715 38.03 12.7358C37.4833 13.9572 36.2533 14.7715 35.0233 14.7715C34.75 14.7715 34.34 14.7715 34.0667 14.6358C34.2033 15.3144 34.2033 15.9929 34.2033 16.5358V17.3501C34.4767 17.3501 34.75 17.4858 35.0233 17.4858C38.44 17.4858 41.1733 14.7715 41.1733 11.5144C41.1733 8.12151 38.44 5.40723 35.16 5.40723C32.9733 5.40723 31.06 6.49294 29.9667 8.39294C30.65 8.80008 31.3333 9.34294 31.88 10.1572Z" fill="#BA9E74"/>
<path d="M16.3 21.8285C15.7533 21.0142 15.3433 20.0642 15.07 18.9785H13.9767C10.4233 18.8428 7.00667 20.0642 4.41 22.2356L4 22.6428V33.4999H6.73333V23.7285C8.92 22.2356 11.38 21.4214 13.9767 21.5571C14.7967 21.5571 15.6167 21.6928 16.3 21.8285Z" fill="#BA9E74"/>
<path d="M13.9766 17.3499C14.2499 17.3499 14.5233 17.3499 14.7966 17.2142V16.3999C14.7966 15.7214 14.7966 15.0428 14.9333 14.4999C14.6599 14.6357 14.2499 14.6357 13.9766 14.6357C12.1999 14.6357 10.6966 13.1428 10.6966 11.3785C10.6966 9.61422 12.1999 8.12137 13.9766 8.12137C15.3433 8.12137 16.5733 8.93565 17.1199 10.1571C17.6666 9.47851 18.4866 8.79994 19.1699 8.25708C17.3933 5.40708 13.7033 4.45708 10.8333 6.22137C7.96328 7.98565 7.00661 11.6499 8.78328 14.4999C9.87661 16.2642 11.7899 17.3499 13.9766 17.3499Z" fill="#BA9E74"/>
<path d="M35.57 30.3786L35.2967 29.9714C32.5633 26.9857 28.7367 25.2214 24.6367 25.3572C20.5367 25.2214 16.5733 26.9857 13.84 29.9714L13.5667 30.3786V40.6929C13.5667 41.9143 14.5233 43 15.89 43H33.3833C34.6133 43 35.7067 41.9143 35.7067 40.6929V30.3786H35.57ZM32.8367 40.2857H16.3V31.3286C18.4867 29.1572 21.4933 28.0714 24.6367 28.0714C27.6433 27.9357 30.65 29.1572 32.8367 31.3286V40.2857Z" fill="#BA9E74"/>
</g>
<defs>
<clipPath id="clip0_11_37">
<rect width="41" height="38" fill="white" transform="translate(4 5)"/>
</clipPath>
</defs>
</svg>
